<svg width="28" height="28" viewBox="0 0 28 28" fill="none" xmlns="http://www.w3.org/2000/svg">
<g clip-path="url(#clip0)">
<path d="M17.2084 9.3334H25.9584C27.0842 9.3334 28 8.4176 28 7.2916V2.0416C28 0.915802 27.0842 0 25.9584 0H17.2084C16.0824 0 15.1666 0.915802 15.1666 2.0416V7.2916C15.1666 8.4176 16.0824 9.3334 17.2084 9.3334ZM25.9584 1.75C26.1193 1.75 26.25 1.88074 26.25 2.0416V7.2916C26.25 7.45267 26.1193 7.5834 25.9584 7.5834H17.2084C17.0473 7.5834 16.9166 7.45267 16.9166 7.2916V2.0416C16.9166 1.88074 17.0473 1.75 17.2084 1.75H25.9584Z" fill="white"/>
<path d="M17.2084 28H25.9584C27.0842 28 28 27.0842 28 25.9584V13.7084C28 12.5824 27.0842 11.6666 25.9584 11.6666H17.2084C16.0824 11.6666 15.1666 12.5824 15.1666 13.7084V25.9584C15.1666 27.0842 16.0824 28 17.2084 28ZM25.9584 13.4166C26.1193 13.4166 26.25 13.5473 26.25 13.7084V25.9584C26.25 26.1193 26.1193 26.25 25.9584 26.25H17.2084C17.0473 26.25 16.9166 26.1193 16.9166 25.9584V13.7084C16.9166 13.5473 17.0473 13.4166 17.2084 13.4166H25.9584Z" fill="white"/>
<path d="M2.01965 28H10.7697C11.8957 28 12.8115 27.0842 12.8115 25.9584V20.7084C12.8115 19.5824 11.8957 18.6666 10.7697 18.6666H2.01965C0.893859 18.6666 -0.0219431 19.5824 -0.0219431 20.7084V25.9584C-0.0219431 27.0842 0.893859 28 2.01965 28ZM10.7697 20.4166C10.9307 20.4166 11.0615 20.5473 11.0615 20.7084V25.9584C11.0615 26.1193 10.9307 26.25 10.7697 26.25H2.01965C1.85879 26.25 1.72806 26.1193 1.72806 25.9584V20.7084C1.72806 20.5473 1.85879 20.4166 2.01965 20.4166H10.7697Z" fill="white"/>
<path d="M2.01965 16.3334H10.7697C11.8957 16.3334 12.8115 15.4176 12.8115 14.2916V2.0416C12.8115 0.915802 11.8957 0 10.7697 0H2.01965C0.893859 0 -0.0219431 0.915802 -0.0219431 2.0416V14.2916C-0.0219431 15.4176 0.893859 16.3334 2.01965 16.3334ZM10.7697 1.75C10.9307 1.75 11.0615 1.88074 11.0615 2.0416V14.2916C11.0615 14.4527 10.9307 14.5834 10.7697 14.5834H2.01965C1.85879 14.5834 1.72806 14.4527 1.72806 14.2916V2.0416C1.72806 1.88074 1.85879 1.75 2.01965 1.75H10.7697Z" fill="white"/>
</g>
<defs>
<clipPath id="clip0">
<rect width="28" height="28" fill="white" transform="matrix(-1 0 0 1 28 0)"/>
</clipPath>
</defs>
</svg>
