<svg width="28" height="34" viewBox="0 0 28 34" fill="none" xmlns="http://www.w3.org/2000/svg">
<path fill-rule="evenodd" clip-rule="evenodd" d="M25.7254 24.8715C26.4786 26.4656 27.2308 26.9925 27.3307 27.0574C27.7519 27.2523 27.9595 27.7026 27.8627 28.1588C27.7649 28.6196 27.3341 28.9373 26.8638 28.9373H19.5627C19.5219 31.7357 17.2379 34 14.4346 34C11.6312 34 9.34725 31.7357 9.30647 28.9373H2.00531C1.53495 28.9373 1.10424 28.6196 1.00642 28.1588C0.909537 27.7026 1.11719 27.2523 1.53834 27.0574C1.63835 26.9925 2.39053 26.4655 3.14364 24.8715C4.52682 21.9441 4.81715 17.8205 4.81715 14.8767C4.81715 10.9696 7.15152 7.59853 10.4965 6.08885V3.78755C10.4965 1.69907 12.1928 0 14.2778 0H14.5912C16.6762 0 18.3725 1.69907 18.3725 3.78755V6.08899C21.7064 7.59382 24.0361 10.9477 24.0512 14.8384C24.0516 14.8512 24.0519 14.8638 24.0519 14.8767C24.0519 16.4895 24.1391 18.4564 24.4453 20.3867H22.4239C22.1832 18.7488 22.0613 16.9229 22.0597 14.9167C22.0593 14.9045 22.0591 14.8923 22.0591 14.88C22.0591 10.6654 18.6385 7.23928 14.4342 7.23928C10.2299 7.23928 6.8094 10.6654 6.8094 14.8767C6.8094 19.642 6.13245 23.393 4.79742 26.0255C4.62311 26.3692 4.44773 26.6733 4.2754 26.9418H18.4455H24.5937C24.4215 26.6733 24.246 26.3693 24.0717 26.0255C23.638 25.1703 23.2737 24.1971 22.9796 23.1094H25.0558C25.2439 23.7285 25.4654 24.3212 25.7254 24.8715ZM14.2779 1.99544C13.2914 1.99544 12.4888 2.79935 12.4888 3.78755H12.4889V5.44199C13.1173 5.31217 13.768 5.24383 14.4343 5.24383C15.1008 5.24383 15.7517 5.31223 16.3804 5.44219V3.78755C16.3804 2.79935 15.5778 1.99544 14.5913 1.99544H14.2779ZM11.2987 28.9374C11.3391 30.6355 12.7297 32.0046 14.4346 32.0046C16.1394 32.0046 17.53 30.6354 17.5704 28.9374H11.2987Z" fill="#D9D8DD"/>
</svg>
