<svg width="209" height="209" viewBox="0 0 209 209" fill="none" xmlns="http://www.w3.org/2000/svg">
<circle cx="104.5" cy="104.5" r="87.5" fill="#2A2658"/>
<path d="M209 104.5C209 162.214 162.214 209 104.5 209C46.7862 209 0 162.214 0 104.5C0 46.7862 46.7862 0 104.5 0C162.214 0 209 46.7862 209 104.5ZM5.225 104.5C5.225 159.328 49.6719 203.775 104.5 203.775C159.328 203.775 203.775 159.328 203.775 104.5C203.775 49.6719 159.328 5.225 104.5 5.225C49.6719 5.225 5.225 49.6719 5.225 104.5Z" fill="#FD6547"/>
<path d="M201.278 143.925C207.885 127.706 210.31 110.087 208.33 92.687C206.35 75.2865 200.029 58.6626 189.948 44.3427C179.866 30.0229 166.348 18.4663 150.634 10.7349C134.92 3.00346 117.516 -0.654838 100.019 0.0961189L100.243 5.31631C116.865 4.6029 133.399 8.07829 148.327 15.4231C163.255 22.768 176.098 33.7467 185.676 47.3506C195.253 60.9545 201.258 76.7472 203.139 93.2776C205.019 109.808 202.716 126.546 196.439 141.954L201.278 143.925Z" fill="#25214D"/>
<path d="M20.1926 42.7544C5.06837 63.4051 -1.95057 88.8885 0.46723 114.371C2.88503 139.853 14.5714 163.562 33.3096 180.999L36.8691 177.175C19.0678 160.609 7.96578 138.085 5.66887 113.877C3.37195 89.6691 10.04 65.4598 24.408 45.8417L20.1926 42.7544Z" fill="#25214D"/>
<path d="M12.843 54.308C2.21867 73.7093 -1.97522 95.9815 0.865058 117.918C3.70533 139.855 13.4333 160.325 28.6484 176.38L32.441 172.786C17.9866 157.533 8.74506 138.087 6.0468 117.247C3.34854 96.4074 7.33274 75.2488 17.4258 56.8176L12.843 54.308Z" fill="#F0487C"/>
<path d="M204.462 134.96C209.125 119.658 210.213 103.489 207.641 87.7001C205.069 71.9111 198.907 56.9233 189.629 43.8916C180.35 30.8599 168.204 20.1323 154.126 12.5354C140.048 4.9385 124.414 0.675139 108.428 0.0738462L108.232 5.29515C123.418 5.86638 138.271 9.91657 151.645 17.1336C165.019 24.3507 176.558 34.5419 185.372 46.922C194.186 59.3021 200.041 73.5406 202.484 88.5401C204.927 103.54 203.894 118.9 199.464 133.437L204.462 134.96Z" fill="#4450D8"/>
<path d="M33.2312 180.926C45.6009 192.461 60.5856 200.822 76.8985 205.289C93.2113 209.756 110.365 210.197 126.886 206.574C143.406 202.951 158.801 195.372 171.747 184.488C184.693 173.604 194.804 159.74 201.211 144.087L196.376 142.108C190.289 156.978 180.684 170.149 168.385 180.489C156.086 190.828 141.461 198.028 125.766 201.47C110.071 204.912 93.7757 204.493 78.2785 200.249C62.7813 196.005 48.5459 188.063 36.7946 177.105L33.2312 180.926Z" fill="#5536CC"/>
</svg>
