<svg width="34" height="34" viewBox="0 0 34 34" fill="none" xmlns="http://www.w3.org/2000/svg">
<g clip-path="url(#clip0)">
<path d="M31.8743 13.8073C31.8743 10.8324 30.0894 10.6199 29.7494 10.6199H3.62381L9.24416 16.2403L7.74611 17.749L0.308973 10.3118C-0.102991 9.89741 -0.102991 9.2282 0.308973 8.81378L7.74611 1.37664L9.24416 2.87469L3.62381 8.49504H29.7494C31.2156 8.49504 33.9992 9.55749 33.9992 13.8073V16.9946H31.8743V13.8073Z" fill="#D9D8DD"/>
<path d="M2.12612 20.182C2.12612 23.1568 3.91103 23.3693 4.25101 23.3693H30.3766L24.7563 17.749L26.2543 16.2509L33.6914 23.688C34.1034 24.1025 34.1034 24.7717 33.6914 25.1861L26.2543 32.6232L24.7456 31.1146L30.3766 25.4942H4.25101C2.78483 25.4942 0.0012207 24.4318 0.0012207 20.182V16.9946H2.12612V20.182Z" fill="#D9D8DD"/>
</g>
<defs>
<clipPath id="clip0">
<rect width="34" height="34" fill="white" transform="matrix(1 0 0 -1 0 34)"/>
</clipPath>
</defs>
</svg>
