<svg width="28" height="28" viewBox="0 0 28 28" fill="none" xmlns="http://www.w3.org/2000/svg">
<path d="M23.7969 7.07413C23.4252 6.70253 22.8419 6.64774 22.4074 6.94376C20.7709 8.05928 12.562 13.6686 11.6798 14.5508C10.4005 15.8302 10.4005 17.9118 11.6798 19.1912C12.3195 19.8309 13.1598 20.1507 14.0001 20.1507C14.8403 20.1507 15.6805 19.8309 16.3203 19.1912C17.2024 18.309 22.8117 10.1002 23.9273 8.46363C24.2232 8.02925 24.1685 7.44585 23.7969 7.07413ZM14.7734 17.6444C14.347 18.0709 13.6531 18.0709 13.2267 17.6444C12.8002 17.218 12.8002 16.5243 13.2264 16.0978C13.5692 15.7591 15.8998 14.0969 18.7673 12.1037C16.7742 14.9712 15.112 17.3017 14.7734 17.6444Z" fill="#6E69A3"/>
<path d="M5.04388 21.9583L3.69365 22.6169C2.70566 20.8537 2.1875 18.8857 2.1875 16.871C2.1875 15.395 2.45968 13.9812 2.95641 12.6774L4.50357 13.4195C4.65615 13.4927 4.8172 13.5274 4.97585 13.5274C5.38344 13.5274 5.77473 13.2985 5.9628 12.9064C6.22398 12.3618 5.9943 11.7084 5.44961 11.4472L3.92208 10.7145C5.82066 7.61807 9.10558 5.45928 12.9063 5.10874V6.75379C12.9063 7.35787 13.396 7.84754 14.0001 7.84754C14.6041 7.84754 15.0938 7.35787 15.0938 6.75379V5.10792C16.3969 5.22653 17.6578 5.55838 18.8547 6.09869C19.4051 6.34724 20.053 6.1023 20.3016 5.55187C20.5501 5.00127 20.3053 4.3535 19.7547 4.10495C17.9409 3.28622 16.0048 2.87103 14 2.87103C10.2605 2.87103 6.74477 4.32725 4.10047 6.9715C1.45627 9.61581 0 13.1315 0 16.871C0 19.6344 0.820203 22.322 2.37196 24.6429C2.58098 24.9555 2.92655 25.1289 3.28191 25.1289C3.44345 25.1289 3.60708 25.0931 3.7608 25.0181L6.00299 23.9244C6.54593 23.6595 6.77135 23.0047 6.5065 22.4618C6.24165 21.9189 5.58682 21.6935 5.04388 21.9583Z" fill="#6E69A3"/>
<path d="M26.766 11.1164C26.5175 10.5658 25.8699 10.3208 25.3191 10.5695C24.7686 10.8181 24.5238 11.4658 24.7723 12.0164C25.4626 13.5453 25.8125 15.1787 25.8125 16.871C25.8125 18.8887 25.2927 20.8599 24.3018 22.6251L22.8921 21.9539C22.3468 21.6942 21.6941 21.9257 21.4343 22.4711C21.1746 23.0165 21.4062 23.6692 21.9516 23.9289L24.2485 25.0227C24.3996 25.0946 24.5598 25.129 24.7182 25.129C25.0736 25.129 25.4193 24.9553 25.628 24.643C27.1798 22.322 28 19.6344 28 16.871C28 14.8662 27.5848 12.9301 26.766 11.1164Z" fill="#6E69A3"/>
</svg>
